<svg width="45" height="54" viewBox="0 0 45 54" fill="none" xmlns="http://www.w3.org/2000/svg">
<path d="M25 47.625V53.875L17.5 48.875L10 53.875V47.625H8.75C3.9175 47.625 0 43.7075 0 38.875V7.625C0 3.48288 3.35788 0.125 7.5 0.125H42.5C43.8807 0.125 45 1.2443 45 2.625V45.125C45 46.5057 43.8807 47.625 42.5 47.625H25ZM25 42.625H40V35.125H8.75C6.67893 35.125 5 36.804 5 38.875C5 40.946 6.67893 42.625 8.75 42.625H10V37.625H25V42.625ZM40 30.125V5.125H7.5V30.2135C7.90825 30.1553 8.3256 30.125 8.75 30.125H40ZM10 7.625H15V12.625H10V7.625ZM10 15.125H15V20.125H10V15.125ZM10 22.625H15V27.625H10V22.625Z" fill="url(#paint0_linear_11_21)"/>
<defs>
<linearGradient id="paint0_linear_11_21" x1="22.5" y1="0.125" x2="22.5" y2="53.875" gradientUnits="userSpaceOnUse">
<stop stop-color="#2866D5"/>
<stop offset="1" stop-color="#3DB7B2"/>
</linearGradient>
</defs>
</svg>
