<svg width="51" height="50" viewBox="0 0 51 50" fill="none" xmlns="http://www.w3.org/2000/svg">
<path d="M11.903 33.9169C14.9863 35.1392 17.1667 38.1483 17.1667 41.6667C17.1667 46.2692 13.4357 50 8.83333 50C4.23097 50 0.5 46.2692 0.5 41.6667C0.5 38.0383 2.81892 34.9514 6.05556 33.8075V16.1925C2.81892 15.0485 0.5 11.9617 0.5 8.33333C0.5 3.73097 4.23097 0 8.83333 0C13.4357 0 17.1667 3.73097 17.1667 8.33333C17.1667 11.9617 14.8477 15.0485 11.6111 16.1925V24.9989C13.9324 23.2553 16.8177 22.2222 19.9444 22.2222H31.0556C34.8986 22.2222 38.1339 19.6208 39.0969 16.0831C36.0136 14.8608 33.8333 11.8517 33.8333 8.33333C33.8333 3.73097 37.5642 0 42.1667 0C46.7692 0 50.5 3.73097 50.5 8.33333C50.5 12.0367 48.0842 15.1758 44.7428 16.2609C43.6172 22.8014 37.9175 27.7778 31.0556 27.7778H19.9444C16.1015 27.7778 12.8661 30.3792 11.903 33.9169ZM8.83333 38.8889C7.29922 38.8889 6.05556 40.1325 6.05556 41.6667C6.05556 43.2008 7.29922 44.4444 8.83333 44.4444C10.3674 44.4444 11.6111 43.2008 11.6111 41.6667C11.6111 40.1325 10.3674 38.8889 8.83333 38.8889ZM8.83333 5.55556C7.29922 5.55556 6.05556 6.79922 6.05556 8.33333C6.05556 9.86744 7.29922 11.1111 8.83333 11.1111C10.3674 11.1111 11.6111 9.86744 11.6111 8.33333C11.6111 6.79922 10.3674 5.55556 8.83333 5.55556ZM42.1667 5.55556C40.6325 5.55556 39.3889 6.79922 39.3889 8.33333C39.3889 9.86744 40.6325 11.1111 42.1667 11.1111C43.7008 11.1111 44.9444 9.86744 44.9444 8.33333C44.9444 6.79922 43.7008 5.55556 42.1667 5.55556Z" fill="url(#paint0_linear_53_26)"/>
<defs>
<linearGradient id="paint0_linear_53_26" x1="0.5" y1="25" x2="50.5" y2="25" gradientUnits="userSpaceOnUse">
<stop stop-color="#1B3F83"/>
<stop offset="1" stop-color="#2C7874"/>
</linearGradient>
</defs>
</svg>
