<svg width="19" height="21" viewBox="0 0 19 21" fill="none" xmlns="http://www.w3.org/2000/svg">
<path d="M13.3334 7.12379V14.3784C13.3334 17.9683 10.4233 20.8784 6.83337 20.8784C3.24352 20.8784 0.333374 17.9683 0.333374 14.3784C0.333374 10.7885 3.24352 7.87842 6.83337 7.87842C7.34967 7.87842 7.85187 7.93861 8.33337 8.05235V11.2152C7.87877 10.9992 7.37017 10.8784 6.83337 10.8784C4.90037 10.8784 3.33337 12.4454 3.33337 14.3784C3.33337 16.3114 4.90037 17.8784 6.83337 17.8784C8.76637 17.8784 10.3334 16.3114 10.3334 14.3784V0.878418H13.3334C13.3334 3.63984 15.572 5.87842 18.3334 5.87842V8.87842C16.4415 8.87842 14.703 8.2217 13.3334 7.12379Z" fill="white"/>
</svg>
