<svg width="21" height="17" viewBox="0 0 21 17" fill="none" xmlns="http://www.w3.org/2000/svg">
<path d="M17.9393 3.87324C17.8631 3.57537 17.6476 3.35063 17.4008 3.2813C16.9623 3.15904 14.8334 2.87842 10.3334 2.87842C5.83337 2.87842 3.70491 3.15915 3.26464 3.28165C3.02015 3.34965 2.80469 3.57435 2.72749 3.87324C2.61869 4.29765 2.33337 6.07437 2.33337 8.87842C2.33337 11.6824 2.61869 13.4592 2.72779 13.8848C2.80365 14.1815 3.01915 14.4062 3.2649 14.4752C3.70491 14.5977 5.83337 14.8784 10.3334 14.8784C14.8334 14.8784 16.9623 14.5978 17.4021 14.4752C17.6466 14.4072 17.8621 14.1825 17.9393 13.8836C18.0481 13.4592 18.3334 11.6784 18.3334 8.87842C18.3334 6.07842 18.0481 4.29765 17.9393 3.87324ZM19.8766 3.3766C20.3334 5.15842 20.3334 8.87842 20.3334 8.87842C20.3334 8.87842 20.3334 12.5984 19.8766 14.3802C19.6221 15.3657 18.8794 16.1402 17.938 16.402C16.2295 16.8784 10.3334 16.8784 10.3334 16.8784C10.3334 16.8784 4.44076 16.8784 2.72876 16.402C1.78385 16.1366 1.04118 15.362 0.790134 14.3802C0.333374 12.5984 0.333374 8.87842 0.333374 8.87842C0.333374 8.87842 0.333374 5.15842 0.790134 3.3766C1.04466 2.39115 1.78734 1.6166 2.72876 1.35478C4.44076 0.878418 10.3334 0.878418 10.3334 0.878418C10.3334 0.878418 16.2295 0.878418 17.938 1.35478C18.8829 1.62024 19.6256 2.39478 19.8766 3.3766ZM8.3334 12.3784V5.37842L14.3334 8.87842L8.3334 12.3784Z" fill="white"/>
</svg>
