<svg width="21" height="21" viewBox="0 0 21 21" fill="none" xmlns="http://www.w3.org/2000/svg">
<path d="M10.3334 7.87842C8.67599 7.87842 7.33337 9.22152 7.33337 10.8784C7.33337 12.5357 8.67649 13.8784 10.3334 13.8784C11.9907 13.8784 13.3334 12.5353 13.3334 10.8784C13.3334 9.22112 11.9903 7.87842 10.3334 7.87842ZM10.3334 5.87842C13.0938 5.87842 15.3334 8.11552 15.3334 10.8784C15.3334 13.6389 13.0963 15.8784 10.3334 15.8784C7.57291 15.8784 5.33337 13.6413 5.33337 10.8784C5.33337 8.11795 7.57048 5.87842 10.3334 5.87842ZM16.8334 5.62757C16.8334 6.31768 16.2726 6.87759 15.5834 6.87759C14.8933 6.87759 14.3334 6.31682 14.3334 5.62757C14.3334 4.93832 14.8941 4.37842 15.5834 4.37842C16.2717 4.37755 16.8334 4.93832 16.8334 5.62757ZM10.3334 2.87842C7.8589 2.87842 7.45557 2.88497 6.30466 2.93622C5.52054 2.97303 4.99492 3.07849 4.50655 3.26809C4.07255 3.43641 3.75948 3.6374 3.42591 3.97097C3.09106 4.30582 2.89043 4.61805 2.72279 5.05225C2.53275 5.54174 2.42732 6.06653 2.39117 6.84957C2.33942 7.95362 2.33337 8.33947 2.33337 10.8784C2.33337 13.3529 2.33992 13.7562 2.39116 14.907C2.42799 15.6908 2.53359 16.2172 2.72273 16.7044C2.89149 17.139 3.09289 17.4528 3.42485 17.7848C3.76102 18.1205 4.07418 18.3218 4.50426 18.4878C4.99858 18.6789 5.52387 18.7845 6.30451 18.8206C7.40857 18.8723 7.79443 18.8784 10.3334 18.8784C12.8079 18.8784 13.2112 18.8718 14.362 18.8206C15.1441 18.7839 15.6709 18.678 16.1594 18.489C16.5928 18.3207 16.9076 18.1186 17.2398 17.7869C17.576 17.4502 17.7769 17.1378 17.9431 16.7067C18.1337 16.2142 18.2395 15.6882 18.2756 14.9073C18.3273 13.8032 18.3334 13.4173 18.3334 10.8784C18.3334 8.40394 18.3268 8.00063 18.2756 6.84979C18.2388 6.06748 18.1329 5.53991 17.9437 5.0516C17.7758 4.6188 17.5741 4.30477 17.2408 3.97097C16.9054 3.63557 16.594 3.43535 16.1595 3.26784C15.6704 3.07796 15.1448 2.97238 14.3622 2.93623C13.2582 2.88447 12.8723 2.87842 10.3334 2.87842ZM10.3334 0.878418C13.05 0.878418 13.3892 0.888418 14.4559 0.938418C15.52 0.987588 16.2459 1.15592 16.8834 1.40342C17.5425 1.65759 18.0992 2.00092 18.655 2.55675C19.21 3.11259 19.5534 3.67092 19.8084 4.32842C20.055 4.96509 20.2234 5.69175 20.2734 6.75592C20.3209 7.82259 20.3334 8.16175 20.3334 10.8784C20.3334 13.5951 20.3234 13.9342 20.2734 15.0009C20.2242 16.0651 20.055 16.7909 19.8084 17.4284C19.5542 18.0876 19.21 18.6442 18.655 19.2001C18.0992 19.7551 17.54 20.0984 16.8834 20.3534C16.2459 20.6001 15.52 20.7684 14.4559 20.8184C13.3892 20.8659 13.05 20.8784 10.3334 20.8784C7.6167 20.8784 7.27753 20.8684 6.21087 20.8184C5.1467 20.7692 4.4217 20.6001 3.78337 20.3534C3.12503 20.0992 2.56753 19.7551 2.0117 19.2001C1.45587 18.6442 1.11337 18.0851 0.858374 17.4284C0.610874 16.7909 0.443374 16.0651 0.393374 15.0009C0.345874 13.9342 0.333374 13.5951 0.333374 10.8784C0.333374 8.16175 0.343374 7.82259 0.393374 6.75592C0.442534 5.69092 0.610874 4.96592 0.858374 4.32842C1.11253 3.67009 1.45587 3.11259 2.0117 2.55675C2.56753 2.00092 3.12587 1.65842 3.78337 1.40342C4.42087 1.15592 5.14587 0.988418 6.21087 0.938418C7.27753 0.890918 7.6167 0.878418 10.3334 0.878418Z" fill="white"/>
</svg>
