<svg width="50" height="50" viewBox="0 0 50 50" fill="none" xmlns="http://www.w3.org/2000/svg">
<path d="M35 45V5H5V42.5C5 43.8807 6.1193 45 7.5 45H35ZM42.5 50H7.5C3.35787 50 0 46.6423 0 42.5V2.5C0 1.1193 1.1193 0 2.5 0H37.5C38.8807 0 40 1.1193 40 2.5V20H50V42.5C50 46.6423 46.6423 50 42.5 50ZM40 25V42.5C40 43.8807 41.1193 45 42.5 45C43.8807 45 45 43.8807 45 42.5V25H40ZM10 10H25V25H10V10ZM15 15V20H20V15H15ZM10 27.5H30V32.5H10V27.5ZM10 35H30V40H10V35Z" fill="url(#paint0_linear_11_15)"/>
<defs>
<linearGradient id="paint0_linear_11_15" x1="25" y1="0" x2="25" y2="50" gradientUnits="userSpaceOnUse">
<stop stop-color="#2868D4"/>
<stop offset="1" stop-color="#3DB7B2"/>
</linearGradient>
</defs>
</svg>
