<svg width="51" height="50" viewBox="0 0 51 50" fill="none" xmlns="http://www.w3.org/2000/svg">
<path d="M29.2067 36.2639L26.8233 39.5639C29.0844 41.5806 31.8956 42.5889 35.2567 42.5889C37.8233 42.5278 39.7789 41.8658 41.1233 40.6028C42.4881 39.3194 43.1706 37.7917 43.1706 36.0194C43.1706 34.2881 42.6919 32.8619 41.7344 31.7417C40.7769 30.6214 39.1678 29.725 36.9067 29.0528C35.0325 28.4825 33.7086 27.9631 32.9344 27.4944C32.1603 27.0056 31.7733 26.4147 31.7733 25.7222C31.7733 25.0908 32.0892 24.5814 32.7206 24.1944C33.3519 23.8075 34.1975 23.6139 35.2567 23.6139C36.0308 23.6139 36.9067 23.7667 37.8844 24.0722C38.8622 24.3369 39.7281 24.7647 40.4817 25.3556L42.6206 22.025C40.7464 20.5175 38.2614 19.7639 35.165 19.7639C32.9447 19.7639 31.1214 20.3342 29.6956 21.475C28.2289 22.6158 27.4956 24.0314 27.4956 25.7222C27.5158 27.5147 28.1067 28.9103 29.2678 29.9083C30.4492 30.9064 32.1297 31.7214 34.3094 32.3528C36.1225 32.9231 37.3547 33.4936 38.0067 34.0639C38.6381 34.6342 38.9539 35.3269 38.9539 36.1417C38.9539 36.9361 38.6381 37.5472 38.0067 37.975C37.3547 38.4231 36.4178 38.6472 35.1956 38.6472C33.1992 38.6675 31.2031 37.8731 29.2067 36.2639ZM13.8446 38.0361C13.2335 37.6694 12.6631 37.1297 12.1335 36.4167L9.26125 38.7694C10.1168 40.2158 11.1761 41.2242 12.439 41.7944C13.6205 42.3242 14.9751 42.5889 16.5029 42.5889C17.3381 42.5889 18.2039 42.4564 19.1001 42.1917C19.9964 41.9269 20.8214 41.4786 21.5753 40.8472C22.8992 39.7881 23.5919 38.0564 23.6531 35.6528V20.1306H19.5279V34.8583C19.5279 36.2639 19.2122 37.2519 18.5807 37.8222C17.9492 38.3722 17.1548 38.6472 16.1974 38.6472C15.2807 38.6472 14.4964 38.4436 13.8446 38.0361ZM0.5 8.33333C0.5 3.73097 4.23097 0 8.83333 0H42.1667C46.7692 0 50.5 3.73097 50.5 8.33333V41.6667C50.5 46.2692 46.7692 50 42.1667 50H8.83333C4.23097 50 0.5 46.2692 0.5 41.6667V8.33333ZM8.83333 5.55556C7.29922 5.55556 6.05556 6.79922 6.05556 8.33333V41.6667C6.05556 43.2008 7.29922 44.4444 8.83333 44.4444H42.1667C43.7008 44.4444 44.9444 43.2008 44.9444 41.6667V8.33333C44.9444 6.79922 43.7008 5.55556 42.1667 5.55556H8.83333Z" fill="url(#paint0_linear_53_24)"/>
<defs>
<linearGradient id="paint0_linear_53_24" x1="0.5" y1="25" x2="50.5" y2="25" gradientUnits="userSpaceOnUse">
<stop stop-color="#1B3F83"/>
<stop offset="1" stop-color="#2C7874"/>
</linearGradient>
</defs>
</svg>
